{"title":"12 Rounds[2009]DvDRip[Eng]-Uvall","uid":5221594,"size":1261901246,"categoryP":"video","categoryS":"movies","magnet":"?xt=urn:btih:3fe2ac9a084a156a89bca9cfdcf141b498b207d5&amp;dn=12+Rounds%5B2009%5DDvDRip%5BEng%5D-Uvall&amp;tr=udp%3A%2F%2Ftracker.openbittorrent.com%3A80&amp;tr=udp%3A%2F%2Fopen.demonii.com%3A1337&amp;tr=udp%3A%2F%2Ftracker.coppersurfer.tk%3A6969&amp;tr=udp%3A%2F%2Fexodus.desync.com%3A6969","seeders":0,"leechers":1,"uploader":"Uvall","files":4,"time":1260958536,"description":"~~~~~~~~~~~~~~~~~~~~~~~~~~~~~~~~~~~~~~~~~~~~~~~~~~~~~~~~~~~~~~~~~~~\nTitle: 12 Rounds[2009]\n~~~~~~~~~~~~~~~~~~~~~~~~~~~~~~~~~~~~~~~~~~~~~~~~~~~~~~~~~~~~~~~~~~~\n~~~~~~~~~~~~~~~~~~~~~~~~~~~~~~~~~~~~~~~~~~~~~~~~~~~~~~~~~~~~~~~~~~~\nRelease Notes\n\nGenre: Action | Crime | Thriller\n\nRated: PG-13 for intense sequences of violence and action.\n\nMovie Information: http://www.imdb.com/title/tt1160368/\n\nPlot: Detective Danny Fisher discovers his girlfriend has been kidnapped\nby a ex-con tied to Fisher's past, and he'll have to successfully\ncomplete 12 challenges in order to secure her safe release.\n\nFormat : AVI\nFormat/Info : Audio Video Interleave\nFile size : 1.18 GiB\nDuration : 1h 47mn\nOverall bit rate : 1 559 Kbps\nMovie name : 12 Rounds[2009]DvDRip[Eng]-Uvall\nWriting application : Lavf52.33.0\n\nVideo\nFormat : MPEG-4 Visual\nFormat profile : Simple@L3\nFormat settings, BVOP : No\nFormat settings, QPel : No\nFormat settings, GMC : No warppoints\nFormat settings, Matrix : Default (H.263)\nCodec ID : XVID\nCodec ID/Hint : XviD\nDuration : 1h 47mn\nBit rate : 1 100 Kbps\nWidth : 720 pixels\nHeight : 358 pixels\nDisplay aspect ratio : 2.011\nFrame rate : 23.976 fps\nResolution : 24 bits\nColorimetry : 4:2:0\nScan type : Progressive\nBits/(Pixel*Frame) : 0.178\nStream size : 849 MiB (71%)\nWriting library : XviD 1.2.1 (UTC 2008-12-04)\n\nAudio\nFormat : AC-3\nFormat/Info : Audio Coding 3\nCodec ID : 2000\nDuration : 1h 47mn\nBit rate mode : Constant\nBit rate : 448 Kbps\nChannel(s) : 6 channels\nChannel positions : Front: L C R, Surround: L R, LFE\nSampling rate : 48.0 KHz\nStream size : 346 MiB (29%)\nAlignment : Aligned on interleaves\nInterleave, duration : 32 ms (0.77 video frame)\n~~~~~~~~~~~~~~~~~~~~~~~~~~~~~~~~~~~~~~~~~~~~~~~~~~~~~~~~~~~~~~~~~~~\n~~~~~~~~~~~~~~~~~~~~~~~~~~~~~~~~~~~~~~~~~~~~~~~~~~~~~~~~~~~~~~~~~~~\nPosted By: Uvall\n~~~~~~~~~~~~~~~~~~~~~~~~~~~~~~~~~~~~~~~~~~~~~~~~~~~~~~~~~~~~~~~~~~~","torrent":{"xt":"urn:btih:3fe2ac9a084a156a89bca9cfdcf141b498b207d5","amp;dn":"12+Rounds%5B2009%5DDvDRip%5BEng%5D-Uvall","amp;tr":["udp%3A%2F%2Ftracker.openbittorrent.com%3A80","udp%3A%2F%2Fopen.demonii.com%3A1337","udp%3A%2F%2Ftracker.coppersurfer.tk%3A6969","udp%3A%2F%2Fexodus.desync.com%3A6969"],"infoHash":"3fe2ac9a084a156a89bca9cfdcf141b498b207d5","infoHashBuffer":{"type":"Buffer","data":[63,226,172,154,8,74,21,106,137,188,169,207,220,241,65,180,152,178,7,213]},"announce":[],"urlList":[]}}